<svg width="23" height="44" viewBox="0 0 23 44" fill="none" xmlns="http://www.w3.org/2000/svg">
<path d="M8.73462 1.84997C9.03629 1.47497 9.63965 0.999972 10.1173 0.824972C10.595 0.649972 11.2234 0.524972 11.5 0.524972C11.7765 0.499972 12.4553 0.724972 13.0084 0.999972C13.5614 1.24997 14.2151 1.82497 14.4413 2.24997C14.6927 2.64997 14.8938 3.47497 14.8938 4.04997C14.8938 4.67497 14.6927 5.44997 14.391 5.92497C14.1145 6.37497 13.486 6.92497 13.0084 7.12497C12.5307 7.32497 11.8519 7.49997 11.5 7.49997C11.148 7.49997 10.4693 7.29997 9.96646 7.07497C9.46367 6.82497 8.81004 6.22497 8.5335 5.74997C8.15641 5.09997 8.05585 4.57497 8.13127 3.69997C8.18155 3.07497 8.45808 2.22497 8.73462 1.84997Z" fill="#24375C"/>
<path d="M15.472 8.82497C15.8491 8.59997 16.4776 8.34997 16.8547 8.22497C17.2318 8.12497 17.9357 8.02497 18.4134 8.02497C18.891 7.99997 19.6955 8.09997 20.1732 8.22497C20.6508 8.34997 21.4301 8.87497 21.8827 9.34997C22.5112 10.075 22.6871 10.475 22.6871 11.325C22.6871 12.075 22.486 12.725 21.9329 13.575C21.5307 14.225 20.1983 15.8 19.0167 17.05C17.8352 18.325 16.2514 20.175 15.5223 21.125C14.7933 22.075 13.8128 23.475 13.3603 24.2C12.8827 24.925 12.3547 25.525 12.2039 25.5C11.9525 25.5 11.8771 24.4 11.8771 20.825C11.9022 18.075 12.0279 15.35 12.229 14.25C12.405 13.225 12.757 11.975 13.0084 11.5C13.2346 11.025 13.7374 10.3 14.1145 9.92497C14.4665 9.52497 15.095 9.02497 15.472 8.82497Z" fill="#24375C"/>
<path d="M6.42177 31.8C7.22624 30.875 8.58378 29.125 9.41339 27.925C10.243 26.725 11.0475 25.75 11.1983 25.8C11.3743 25.85 11.4497 27.575 11.4246 30.75C11.4246 34.15 11.2737 36.2 10.9972 37.5C10.7961 38.525 10.3184 39.85 9.9916 40.45C9.63965 41.025 9.06143 41.725 8.68434 41.975C8.2821 42.25 7.47764 42.65 6.84914 42.85C6.22065 43.075 5.31562 43.25 4.83797 43.25C4.36032 43.25 3.53071 43.125 3.02791 43C2.49998 42.85 1.79607 42.425 1.44412 42C1.09216 41.575 0.740205 40.875 0.664786 40.45C0.539087 39.875 0.664786 39.275 1.01674 38.5C1.31842 37.875 2.324 36.5 3.25417 35.425C4.18434 34.35 5.6173 32.725 6.42177 31.8Z" fill="#24375C"/>
<path d="M1.11734 9.75C1.44416 9.275 2.09779 8.675 2.57544 8.45C3.07824 8.2 4.0084 8 4.71231 8C5.41623 8.025 6.37153 8.15 6.84919 8.325C7.35198 8.5 8.15645 8.925 8.68438 9.325C9.18717 9.7 9.89109 10.575 10.243 11.25C10.595 11.95 10.9972 13.325 11.1481 14.325C11.2989 15.3 11.5252 16.325 11.6509 16.575C11.7766 16.8 11.8771 18.775 11.8771 20.95C11.8771 23.7 11.8017 24.975 11.5754 25.2C11.3995 25.35 11.1481 25.5 11.0224 25.5C10.8715 25.5 10.419 24.975 9.99164 24.3C9.58941 23.65 8.60896 22.275 7.82963 21.25C7.0503 20.225 5.41623 18.3 4.20952 17C3.00282 15.7 1.67042 14.075 1.29332 13.375C0.891086 12.7 0.56427 11.8 0.56427 11.375C0.56427 10.975 0.815667 10.225 1.11734 9.75Z" fill="#82A4BC"/>
<path d="M11.4497 30.325C11.3995 27.525 11.4497 26.4 11.7011 26.125C11.852 25.925 12.1285 25.75 12.2542 25.75C12.3799 25.725 13.0084 26.5 13.6369 27.425C14.2654 28.35 15.3967 29.9 16.176 30.875C16.9302 31.825 18.3883 33.5 19.3687 34.55C20.3743 35.625 21.5308 37.025 21.933 37.675C22.4358 38.475 22.6872 39.2 22.6872 39.825C22.6872 40.325 22.5363 41.05 22.3352 41.45C22.1592 41.825 21.6816 42.35 21.2794 42.6C20.8771 42.85 19.9218 43.125 19.1676 43.2C18.2877 43.275 17.3324 43.175 16.528 42.925C15.7235 42.675 14.8939 42.15 14.19 41.45C13.5615 40.825 12.9581 39.925 12.7319 39.25C12.5308 38.625 12.2039 37.225 11.9525 36.125C11.7263 34.975 11.5252 32.525 11.4497 30.325Z" fill="#82A4BC"/>
</svg>
